<mxfile host="Electron" modified="2023-09-26T01:47:37.738Z" agent="Mozilla/5.0 (Windows NT 10.0; Win64; x64) AppleWebKit/537.36 (KHTML, like Gecko) draw.io/21.7.5 Chrome/114.0.5735.289 Electron/25.8.1 Safari/537.36" etag="AGC1L1EF8RABmrx2-drA" version="21.7.5" type="device">
  <diagram name="Page-1" id="YVfdAPK9UTTXwbsGs6T_">
    <mxGraphModel dx="1007" dy="592" grid="1" gridSize="10" guides="1" tooltips="1" connect="1" arrows="1" fold="1" page="1" pageScale="1" pageWidth="850" pageHeight="1100" math="0" shadow="0">
      <root>
        <mxCell id="0" />
        <mxCell id="1" parent="0" />
        <mxCell id="dcf1PYINWiMDMfPgYdTN-1" value="" style="rounded=0;whiteSpace=wrap;html=1;" vertex="1" parent="1">
          <mxGeometry x="230" y="190" width="390" height="580" as="geometry" />
        </mxCell>
        <mxCell id="dcf1PYINWiMDMfPgYdTN-2" value="Alarm number" style="ellipse;html=1;whiteSpace=wrap;" vertex="1" parent="1">
          <mxGeometry x="380" y="230" width="90" height="30" as="geometry" />
        </mxCell>
        <mxCell id="dcf1PYINWiMDMfPgYdTN-3" value="Set HH" style="ellipse;html=1;whiteSpace=wrap;" vertex="1" parent="1">
          <mxGeometry x="400" y="290" width="50" height="25" as="geometry" />
        </mxCell>
        <mxCell id="dcf1PYINWiMDMfPgYdTN-4" value="Set MM" style="ellipse;html=1;whiteSpace=wrap;" vertex="1" parent="1">
          <mxGeometry x="395" y="340" width="60" height="30" as="geometry" />
        </mxCell>
        <mxCell id="dcf1PYINWiMDMfPgYdTN-5" value="Select Snooze Time" style="ellipse;html=1;whiteSpace=wrap;" vertex="1" parent="1">
          <mxGeometry x="365" y="410" width="120" height="40" as="geometry" />
        </mxCell>
        <mxCell id="dcf1PYINWiMDMfPgYdTN-6" value="Set Time Format" style="ellipse;html=1;whiteSpace=wrap;" vertex="1" parent="1">
          <mxGeometry x="380" y="500" width="90" height="40" as="geometry" />
        </mxCell>
        <mxCell id="dcf1PYINWiMDMfPgYdTN-7" value="Turn off" style="ellipse;html=1;whiteSpace=wrap;" vertex="1" parent="1">
          <mxGeometry x="385" y="570" width="80" height="30" as="geometry" />
        </mxCell>
        <mxCell id="dcf1PYINWiMDMfPgYdTN-8" value="Snooze" style="ellipse;html=1;whiteSpace=wrap;" vertex="1" parent="1">
          <mxGeometry x="375" y="640" width="100" height="30" as="geometry" />
        </mxCell>
        <mxCell id="dcf1PYINWiMDMfPgYdTN-10" style="edgeStyle=orthogonalEdgeStyle;rounded=0;orthogonalLoop=1;jettySize=auto;html=1;exitX=1;exitY=0.3333333333333333;exitDx=0;exitDy=0;exitPerimeter=0;entryX=0;entryY=0.5;entryDx=0;entryDy=0;" edge="1" parent="1" source="dcf1PYINWiMDMfPgYdTN-9" target="dcf1PYINWiMDMfPgYdTN-2">
          <mxGeometry relative="1" as="geometry" />
        </mxCell>
        <mxCell id="dcf1PYINWiMDMfPgYdTN-11" style="edgeStyle=orthogonalEdgeStyle;rounded=0;orthogonalLoop=1;jettySize=auto;html=1;exitX=1;exitY=0.3333333333333333;exitDx=0;exitDy=0;exitPerimeter=0;entryX=0;entryY=0.5;entryDx=0;entryDy=0;" edge="1" parent="1" source="dcf1PYINWiMDMfPgYdTN-9" target="dcf1PYINWiMDMfPgYdTN-3">
          <mxGeometry relative="1" as="geometry" />
        </mxCell>
        <mxCell id="dcf1PYINWiMDMfPgYdTN-12" style="edgeStyle=orthogonalEdgeStyle;rounded=0;orthogonalLoop=1;jettySize=auto;html=1;exitX=1;exitY=0.3333333333333333;exitDx=0;exitDy=0;exitPerimeter=0;entryX=0;entryY=0.5;entryDx=0;entryDy=0;" edge="1" parent="1" source="dcf1PYINWiMDMfPgYdTN-9" target="dcf1PYINWiMDMfPgYdTN-4">
          <mxGeometry relative="1" as="geometry">
            <Array as="points">
              <mxPoint x="270" y="420" />
              <mxPoint x="270" y="355" />
            </Array>
          </mxGeometry>
        </mxCell>
        <mxCell id="dcf1PYINWiMDMfPgYdTN-13" style="edgeStyle=orthogonalEdgeStyle;rounded=0;orthogonalLoop=1;jettySize=auto;html=1;exitX=0.5;exitY=0.5;exitDx=0;exitDy=0;exitPerimeter=0;entryX=0;entryY=0.5;entryDx=0;entryDy=0;" edge="1" parent="1" source="dcf1PYINWiMDMfPgYdTN-9" target="dcf1PYINWiMDMfPgYdTN-5">
          <mxGeometry relative="1" as="geometry" />
        </mxCell>
        <mxCell id="dcf1PYINWiMDMfPgYdTN-14" style="edgeStyle=orthogonalEdgeStyle;rounded=0;orthogonalLoop=1;jettySize=auto;html=1;exitX=0.5;exitY=0.5;exitDx=0;exitDy=0;exitPerimeter=0;entryX=0;entryY=0.5;entryDx=0;entryDy=0;" edge="1" parent="1" source="dcf1PYINWiMDMfPgYdTN-9" target="dcf1PYINWiMDMfPgYdTN-6">
          <mxGeometry relative="1" as="geometry">
            <Array as="points">
              <mxPoint x="95" y="520" />
            </Array>
          </mxGeometry>
        </mxCell>
        <mxCell id="dcf1PYINWiMDMfPgYdTN-15" style="edgeStyle=orthogonalEdgeStyle;rounded=0;orthogonalLoop=1;jettySize=auto;html=1;exitX=0.5;exitY=0.5;exitDx=0;exitDy=0;exitPerimeter=0;entryX=0;entryY=0.5;entryDx=0;entryDy=0;" edge="1" parent="1" source="dcf1PYINWiMDMfPgYdTN-9" target="dcf1PYINWiMDMfPgYdTN-7">
          <mxGeometry relative="1" as="geometry">
            <Array as="points">
              <mxPoint x="95" y="585" />
            </Array>
          </mxGeometry>
        </mxCell>
        <mxCell id="dcf1PYINWiMDMfPgYdTN-16" style="edgeStyle=orthogonalEdgeStyle;rounded=0;orthogonalLoop=1;jettySize=auto;html=1;exitX=1;exitY=1;exitDx=0;exitDy=0;exitPerimeter=0;entryX=0;entryY=0.5;entryDx=0;entryDy=0;" edge="1" parent="1" source="dcf1PYINWiMDMfPgYdTN-9" target="dcf1PYINWiMDMfPgYdTN-8">
          <mxGeometry relative="1" as="geometry" />
        </mxCell>
        <mxCell id="dcf1PYINWiMDMfPgYdTN-9" value="User" style="shape=umlActor;verticalLabelPosition=bottom;verticalAlign=top;html=1;" vertex="1" parent="1">
          <mxGeometry x="80" y="400" width="30" height="60" as="geometry" />
        </mxCell>
        <mxCell id="dcf1PYINWiMDMfPgYdTN-17" value="&amp;lt;&amp;lt;include&amp;gt;&amp;gt;" style="endArrow=open;startArrow=none;endFill=0;startFill=0;endSize=8;html=1;verticalAlign=bottom;dashed=1;labelBackgroundColor=none;rounded=0;exitX=0.5;exitY=1;exitDx=0;exitDy=0;entryX=0.5;entryY=0;entryDx=0;entryDy=0;" edge="1" parent="1" source="dcf1PYINWiMDMfPgYdTN-2" target="dcf1PYINWiMDMfPgYdTN-3">
          <mxGeometry x="0.3333" y="35" width="160" relative="1" as="geometry">
            <mxPoint x="340" y="390" as="sourcePoint" />
            <mxPoint x="500" y="390" as="targetPoint" />
            <mxPoint as="offset" />
          </mxGeometry>
        </mxCell>
        <mxCell id="dcf1PYINWiMDMfPgYdTN-18" value="Alarm Software" style="text;html=1;strokeColor=none;fillColor=none;align=center;verticalAlign=middle;whiteSpace=wrap;rounded=0;" vertex="1" parent="1">
          <mxGeometry x="368" y="160" width="115" height="30" as="geometry" />
        </mxCell>
        <mxCell id="dcf1PYINWiMDMfPgYdTN-19" value="Rahul Siloniya&lt;br&gt;IT A1&lt;br&gt;12113018" style="text;html=1;strokeColor=none;fillColor=none;align=center;verticalAlign=middle;whiteSpace=wrap;rounded=0;" vertex="1" parent="1">
          <mxGeometry x="650" y="980" width="120" height="60" as="geometry" />
        </mxCell>
      </root>
    </mxGraphModel>
  </diagram>
</mxfile>
